<?xml version="1.0" encoding="UTF-8" standalone="no"?>
<!-- Created with Inkscape (http://www.inkscape.org/) -->

<svg
   width="8.5in"
   height="11in"
   viewBox="0 0 215.9 279.4"
   version="1.1"
   id="svg1"
   xml:space="preserve"
   inkscape:version="1.4 (86a8ad7, 2024-10-11)"
   sodipodi:docname="lashes-logo.svg"
   xmlns:inkscape="http://www.inkscape.org/namespaces/inkscape"
   xmlns:sodipodi="http://sodipodi.sourceforge.net/DTD/sodipodi-0.dtd"
   xmlns="http://www.w3.org/2000/svg"
   xmlns:svg="http://www.w3.org/2000/svg"><sodipodi:namedview
     id="namedview1"
     pagecolor="#505050"
     bordercolor="#eeeeee"
     borderopacity="1"
     inkscape:showpageshadow="0"
     inkscape:pageopacity="0"
     inkscape:pagecheckerboard="0"
     inkscape:deskcolor="#505050"
     inkscape:document-units="mm"
     inkscape:zoom="0.65477694"
     inkscape:cx="410.82693"
     inkscape:cy="542.93299"
     inkscape:window-width="1920"
     inkscape:window-height="974"
     inkscape:window-x="-11"
     inkscape:window-y="-11"
     inkscape:window-maximized="1"
     inkscape:current-layer="layer1" /><defs
     id="defs1" /><g
     inkscape:label="Capa 1"
     inkscape:groupmode="layer"
     id="layer1"><path
       style="fill:#0a0a0a;stroke:none;stroke-width:2.59737"
       d="M 100.53025,2.0007923 C 94.700658,2.9920847 88.93165,3.6089727 83.17641,5.375501 67.645018,10.142711 53.240578,19.301891 40.755909,32.173725 30.347319,42.905113 21.494044,56.455661 14.904348,71.413847 -11.908197,132.27645 1.5466818,213.04426 45.989612,253.45129 c 9.240521,8.40142 19.475477,15.04196 30.300348,19.26429 14.979165,5.84275 30.78543,7.43213 46.27688,4.79399 15.48749,-2.63747 30.01822,-9.88374 43.24686,-20.52193 10.05185,-8.08352 18.8716,-18.79916 26.22332,-30.74829 32.52287,-52.861 29.55675,-131.622197 -5.8641,-180.867584 C 173.75303,28.104465 157.97875,15.636078 140.74704,8.2704468 128.41574,2.9995005 113.51731,-0.20763769 100.53025,2.0007923 m 2.47912,4.5880711 c 9.61749,-1.4695991 20.42439,0.6699043 29.74943,3.6890586 47.23744,15.294109 80.6288,72.571653 78.49459,135.694758 -2.19448,64.90465 -41.60429,120.32409 -91.71655,127.29728 -12.24308,1.70365 -24.961302,0.8695 -36.911369,-3.20654 C 68.619042,265.28596 55.512843,257.26935 44.061412,245.70869 5.9511756,207.23504 -5.6520182,137.84128 14.802546,81.759316 20.507307,66.118092 28.94897,52.009273 38.827712,40.437965 52.010471,24.996563 68.337293,14.44615 85.655522,9.4923306 91.416215,7.8445093 97.19334,7.4776287 103.00937,6.5888634 M 56.181554,124.56821 c -2.422239,4.76305 -6.335424,7.83822 -10.742651,4.508 -1.180808,-0.89227 -1.708161,-2.45782 -2.75477,-3.43778 0.558385,6.49326 7.315525,5.52821 10.742841,4.28092 -1.357126,6.10098 -4.580061,13.42001 -7.795485,18.1921 -0.491614,0.7296 -1.080133,1.62819 -1.845538,1.85196 -0.954481,0.27911 -3.329987,-1.40536 -3.155012,1.30947 0.04474,0.69394 0.482882,0.98008 0.967503,1.03253 2.244413,0.2427 3.841426,1.36383 6.043909,1.87232 v 0.35671 c -1.225987,1.38744 -0.550898,6.17849 -0.550898,8.20505 0,7.25755 0.638644,15.10928 -1.109917,22.11792 -0.901485,3.61337 -4.365318,4.51807 -4.399245,8.20505 H 104.6621 c 0.50079,-5.13203 0.77352,-10.52278 0.82745,-15.6966 0.0112,-1.14474 0.73923,-4.1815 -0.35218,-4.75822 -1.31475,-0.6946 -2.40223,3.35514 -2.90315,4.40149 -2.344639,4.89719 -5.719256,9.01448 -9.96773,10.93594 -7.12462,3.22221 -15.439296,1.90672 -22.862977,1.90672 -2.74262,0 -6.466256,0.8861 -8.802749,-1.35566 -2.05689,-1.97356 -2.215408,-5.24698 -2.215551,-8.27632 v -17.83706 c 0,-2.87635 -0.654088,-6.39673 1.37728,-8.20502 v -0.35674 c -5.328418,2.51504 -10.309732,-0.24406 -15.15016,-2.85394 v -0.71348 c 3.947606,-2.38571 6.390728,-9.80314 8.192522,-14.62639 1.291487,-3.4572 1.505192,-5.99489 4.478517,-7.49154 v -0.35676 l -2.20366,0.71348 c 0.864733,-1.8919 1.454125,-3.73957 3.305501,-3.92415 l 0.550923,-2.49717 c -1.017322,3e-5 -0.550923,-7.4263 -0.550923,-8.91853 0,-9.59628 -0.716525,-19.708026 0,-29.252748 0.244267,-3.253952 0.579104,-7.327069 2.157751,-9.988726 0.787558,-1.327835 3.810229,-2.382176 3.305502,-4.280921 -0.376886,-1.417743 -4.178594,-0.713456 -5.187792,-0.713456 -5.188027,0 -11.14042,-1.070897 -16.252001,0 -0.865064,0.181485 -1.159665,1.56436 -0.505012,2.378266 0.966397,1.201524 2.309491,1.372222 3.16775,2.972852 1.717413,3.202797 1.979712,8.726205 2.020042,12.485914 0.100758,9.390042 0,18.791459 0,28.182529 0,1.66832 -0.727074,8.47601 0.321347,9.45365 0.52985,0.49406 1.808246,0.17825 2.433209,0.17825 h 6.335545 M 106.31483,68.916578 v 2.497189 c 4.41486,1.374488 4.97669,7.512868 5.25816,12.485914 0.68145,12.039051 0.27023,24.305029 0.25102,36.387579 -0.004,3.38061 -2.5266,4.82133 -1.92819,8.20502 -2.81869,0.8691 -5.42536,0.7748 -7.66502,3.63321 -3.876487,4.94756 -3.23111,14.54312 2.4313,16.70101 -0.62386,1.54406 -1.81814,3.85552 0,4.63763 0.14827,-8.17454 9.39003,-0.39543 11.01831,-7.13479 -2.06789,-0.63763 -4.53603,-0.5858 -6.61098,0.005 -2.5122,0.71588 -3.70921,2.62036 -6.04903,0.16233 -4.811517,-5.05464 -0.74622,-14.4237 4.12083,-16.54058 2.62283,-1.14077 4.25473,0.78063 6.61098,1.74627 -0.85432,-1.43376 -2.58866,-2.40531 -2.89848,-4.28224 -0.61397,-3.71953 4.99519,-4.25226 5.10215,0.001 h 0.27545 v -2.85396 h 6.88645 V 71.770292 c 14.07505,-0.01076 32.79262,-4.886214 42.63089,11.772459 1.68113,2.846541 2.92357,5.944249 3.92145,9.275245 l 1.65273,-0.356715 -1.65273,-23.544918 h -63.35529 m 55.09157,44.235877 c -1.1405,6.23277 -4.84521,9.39706 -9.36556,11.05896 v 0.35674 h 11.01829 v -11.4157 h -1.65273 m -101.460267,8.32392 0.18365,0.11893 -0.18365,-0.11893 m 0.9182,-0.11893 v 1.78368 h 0.275462 l -0.275462,-1.78368 m -1.652761,0.35672 0.275462,0.35674 -0.275462,-0.35674 m 7.712821,13.91288 -0.275459,0.35677 2.754579,1.42693 c -0.647755,3.62623 -1.217087,6.77385 -4.131859,8.20505 l -0.275459,-5.35109 c -1.55129,1.40825 -1.358067,4.07287 -3.850892,4.11187 -2.072968,0.0324 -0.328998,-2.74453 -1.28461,-3.73973 -1.677226,-1.74674 -3.395413,2.81173 -3.679139,4.26547 l 2.47912,-1.07022 c 1.104268,2.59356 3.612865,0.85654 5.233677,0 -0.0021,3.71599 -2.533175,4.25886 -2.90526,7.48467 -0.26065,2.25968 1.924129,1.9426 2.814524,0.92244 1.363129,-1.5619 0.986503,-3.67027 1.792588,-5.48736 0.512075,-1.15439 1.604263,-1.84098 2.430033,-2.56299 v 1.78368 l 2.75458,-1.78368 c 0.01177,5.0916 2.356674,6.95499 6.060058,6.06459 v -0.35674 c -3.803819,0.37463 -4.596986,-2.40147 -5.233699,-6.77807 l -2.479121,1.07006 c 0.77767,-3.88287 1.535115,-6.69149 3.305501,-9.98872 l -1.101842,0.71345 c 1.04894,-4.16774 2.843949,-11.50158 6.610977,-12.48592 -0.08501,5.16203 -3.125878,7.89728 -5.233671,11.77247 3.108108,-2.83549 5.930634,-6.96165 5.50914,-12.12921 -3.681587,0.2578 -5.640133,5.39381 -6.927457,9.27527 -1.013648,3.05629 -1.408451,6.43256 -4.366309,4.28087 m 51.786057,-3.21067 v 0.35674 l 2.75458,-0.71345 c -1.3881,3.8432 -5.35961,15.91183 0.55093,16.76681 v -0.35677 c -4.86149,-3.09701 -0.0765,-15.09113 1.92818,-18.90726 l -0.55091,0.35677 v -0.35677 c 1.07267,-2.26158 2.02556,-5.29672 4.13185,-6.0646 -2.82017,-1.24869 -4.1848,5.09267 -5.6167,7.05473 -0.85527,1.172 -2.07587,1.36772 -3.19793,1.8638 m -58.121576,-8.91853 0.275459,0.35677 -0.275459,-0.35677 m -0.275461,0.71351 -1.652739,2.49716 1.652739,-2.49716 m 66.936217,0.35672 0.27545,0.35676 -0.27545,-0.35676 m -0.27546,0.71351 -0.27543,0.71348 0.27543,-0.71348 m -68.864416,1.42693 -0.275461,0.71351 0.275461,-0.71351 m 67.762596,0.35677 -1.37728,2.14045 1.37728,-2.14045 m -1.10184,15.33985 1.3773,-1.78371 -0.82638,1.07022 v 0.35675 l 1.10184,-1.78368 c -1.71501,0.0537 -5.42697,3.21247 -2.71378,5.28723 1.6868,1.28987 4.03288,-0.63498 5.46837,-1.71985 l 0.27543,1.42696 1.3773,-0.35674 -2.47912,6.06461 v 0.35674 l 0.55093,-0.35674 v 0.35674 l -5.78462,13.55613 v -10.345 h -7.98827 c -0.821,0 -2.43855,-0.38269 -3.02238,0.57201 -0.96117,1.57168 -0.28312,6.39606 -0.28312,8.34652 0,6.9326 0.67755,14.7238 -1.03297,21.40444 -0.81145,3.16925 -2.43438,3.53714 -3.99521,5.65062 -0.49317,0.66782 -0.49839,1.88418 0.18947,2.33919 1.31615,0.87037 3.93089,0.21519 5.38949,0.21519 h 13.22196 47.65418 c 0.83139,-5.79963 0.62334,-11.96165 1.05509,-17.83703 0.0835,-1.13649 0.52636,-5.32909 -0.562,-5.79651 -1.06681,-0.45819 -2.00608,3.47237 -2.35327,4.36953 -1.98784,5.13623 -4.9609,9.58502 -8.88267,12.37472 -7.74593,5.50994 -17.11578,4.03538 -25.61755,4.03538 -2.96205,0 -7.11501,0.96398 -9.91649,-0.346 -4.01367,-1.87687 -3.85639,-7.58714 -3.85639,-12.13996 0,-3.16927 -0.53844,-7.29188 0.14056,-10.3455 0.77323,-3.47793 3.20265,-7.08345 4.51336,-10.34544 1.70461,-4.24236 2.4562,-8.08874 6.6399,-8.56182 v -0.35671 l -3.85641,1.07022 c 0.43379,-1.18699 3.75542,-9.40943 1.36135,-8.96092 -1.75901,0.32956 -2.7386,3.27579 -4.39139,4.15097 -1.29063,0.68339 -4.52229,0.58852 -2.75457,-1.96816 m -43.797771,1.42699 c -0.0099,3.48816 -1.531661,4.45437 -3.856422,5.70784 v 0.35676 l 1.377309,-0.71348 c -0.752106,2.67339 0.219422,5.53938 2.42024,2.77245 1.14738,-1.44262 0.846247,-3.21557 1.523706,-4.8807 0.534693,-1.31422 1.674552,-2.10194 2.391565,-3.24287 l -2.479113,2.14045 -0.275457,-5.70786 c -1.477658,1.17278 -1.426802,3.39445 -3.305484,4.24209 -1.392328,0.62819 -4.565703,-0.39382 -2.20368,-2.10167 v -0.35671 l -0.550902,-0.71349 1.652742,-0.71348 -0.826383,1.07022 v 0.35675 l 1.10184,-1.78371 c -1.706559,0.0534 -5.685574,3.76489 -2.717593,5.44278 1.842783,1.0418 4.118261,-0.99685 5.747632,-1.87537 m 51.510601,-3.56741 c -0.21708,2.10326 -1.1591,3.69931 -2.75459,4.28087 0.47545,-1.9451 1.22102,-3.5895 2.75459,-4.28087 m 2.4791,4.63764 2.47914,-1.07023 c 1.36881,3.21477 6.58274,0.0537 8.26372,-1.42699 0.28805,4.10812 2.96128,3.68342 5.2337,2.14045 v -0.35672 c -0.8164,0.40704 -1.8584,1.19114 -2.73842,0.67026 -1.93897,-1.14765 -0.88563,-3.72501 -3.5971,-2.45399 l 0.27545,-1.78368 c -1.97012,0.41526 -2.44761,3.5244 -4.6815,3.78598 -2.3189,0.27163 -0.71972,-2.70375 -1.8213,-3.76948 -1.66973,-1.61535 -3.23443,2.80189 -3.41369,4.2644 m 22.31207,-1.07023 c 1.1663,3.98513 4.98981,1.07691 6.88645,-0.35677 v -0.35671 c -1.22126,0.65763 -2.49113,1.7384 -3.85619,1.72948 -1.43095,-0.008 -1.83372,-1.25619 -0.82659,-2.44299 l 1.10184,-1.78368 -0.82639,1.07022 v 0.35675 l 1.37731,-1.78371 c -0.82774,0 -1.74403,-0.1262 -2.45618,0.5351 -1.18328,1.09859 -2.92604,5.1654 -4.9506,3.81515 -1.51484,-1.0103 0.65386,-3.83678 2.17308,-2.92329 v -1.42696 c -1.37047,0.0189 -5.42513,2.30333 -3.6477,4.77913 1.21219,1.68843 3.8847,-0.35299 5.02497,-1.21172 m -97.787471,-3.21066 c -0.374626,1.72826 -1.235688,2.81585 -2.47912,3.56741 0.55224,-1.65607 1.126728,-2.94341 2.47912,-3.56741 m 22.862985,10.3455 h 0.275457 l 2.479113,-3.21068 c -0.01115,1.79341 -1.109325,6.35037 -2.75457,3.56742 h -0.275457 c 0.483652,2.0634 2.018027,2.07604 3.117178,0.59073 1.088668,-1.47125 0.891081,-3.21381 1.572183,-4.85758 0.60949,-1.47087 1.94105,-2.29769 2.74799,-3.58149 l -3.030051,2.14047 0.275481,-4.63763 -1.21639,0.47509 -0.527952,4.87079 -2.662982,4.64288 m 55.917906,-10.3455 -2.47912,3.56741 c 0.40943,-1.78508 1.05826,-3.04626 2.47912,-3.56741 m 12.94653,3.21067 0.27546,0.35674 -0.27546,-0.35674 m -36.08497,2.49718 c -0.91998,3.47885 -6.30251,2.49719 -8.53918,2.49719 1.61605,-3.19217 5.9968,-2.49719 8.53918,-2.49719 m -51.235132,1.78371 c -0.0094,1.1796 -0.592216,5.6748 -2.308664,4.23217 -1.544155,-1.29783 1.552961,-3.89927 2.308664,-4.23217 m 17.078381,0 c -0.08649,2.40531 -0.776816,4.08765 -2.754582,4.28087 0.09752,-2.3078 0.971343,-3.81459 2.754582,-4.28087 m -38.288623,2.85394 v 0.71345 c -2.069956,0.55791 -1.910165,-1.83708 0,-0.71345 m 85.116444,0.35674 -0.27548,0.71348 0.27548,-0.71348 m -0.82638,0.71348 -0.27546,0.71345 0.27546,-0.71345 m -66.660784,1.07022 -0.275437,0.71345 0.275437,-0.71345 m 65.558944,0 -0.27546,0.71345 0.27546,-0.71345 m -0.82637,0.71345 -1.3773,2.14045 1.3773,-2.14045 m -5.78462,45.3061 v 0.35673 c 2.23146,1.72127 1.65275,4.87076 1.65275,7.84831 -3.23604,-1.10928 -6.62559,-1.74351 -9.33985,1.50292 -3.72527,4.45575 -3.62556,15.959 1.35264,18.99039 2.77369,1.68903 5.26637,0.4892 7.98721,-0.51584 0.94261,1.88303 4.55933,1.288 6.06008,0.71351 -3.43576,-5.37038 -1.37763,-15.52465 -1.3773,-22.11793 1e-4,-1.67101 0.67327,-7.10603 -0.44167,-8.18992 -1.08755,-1.05728 -4.72861,0.8425 -5.89386,1.41183 m 12.12523,-1.51888 c -3.20343,1.64099 -0.87064,7.46133 2.19349,5.89169 3.18682,-1.63245 0.84525,-7.44834 -2.19349,-5.89169 m -70.797723,22.92333 h -0.275461 c -0.02756,1.73249 -0.842015,4.75877 0.166225,6.18876 0.80053,1.13534 2.57991,1.44277 3.690204,1.72808 4.100522,1.05377 9.761233,0.17474 11.232126,-5.77639 1.412378,-5.71447 -1.73827,-9.63989 -5.447503,-11.82089 -2.149911,-1.26417 -5.055783,-2.51129 -5.449221,-6.01614 -0.454768,-4.05128 2.943472,-6.85356 5.72574,-5.34893 1.932697,1.04521 2.825677,3.71632 3.579878,6.06238 h 0.550927 c 0.25304,-1.3765 0.675724,-3.86212 -0.0074,-5.12346 -0.682131,-1.25897 -2.490025,-1.70237 -3.573314,-2.0061 -3.59775,-1.00877 -8.500052,0.0499 -10.058874,4.98911 -0.32615,1.03345 -0.406386,2.10446 -0.406386,3.21068 0,4.85661 2.663536,7.44496 5.78248,9.35345 2.082315,1.27417 4.795294,2.58631 5.173759,5.98641 0.544563,4.89204 -3.909067,6.99355 -6.825439,5.20356 -2.122342,-1.30261 -2.829992,-4.13501 -3.857459,-6.63052 m 23.138441,-19.9775 c -2.074868,2.80767 -3.675862,5.48163 -6.61098,6.77809 v 0.35674 c 2.590465,0.1092 2.203655,2.67483 2.203655,5.35111 0,3.75464 -0.959756,10.30585 0.751352,13.54047 2.008634,3.79706 7.247793,2.34957 8.614211,-1.41129 -1.054393,0.56203 -2.350561,1.93448 -3.52208,1.05897 -1.304855,-0.9752 -1.160218,-3.32689 -1.160701,-4.98314 v -13.55612 h 3.856397 v -0.71347 h -3.856397 l -0.275457,-6.42136 m 44.89959,8.91853 c 0.86532,0.40301 1.40847,0.89384 1.58985,2.14594 0.52274,3.60856 0.70674,10.36802 -0.0564,13.90189 -0.25374,1.17482 -1.0562,1.86573 -1.53331,2.85942 l 7.71281,-0.35671 v -0.35674 c -1.74736,-1.72408 -1.37727,-4.18489 -1.37727,-6.77809 0,-4.53453 0.71759,-10.27552 -0.27548,-14.62639 -1.71444,0.72249 -5.02482,1.25345 -6.06006,3.21068 m 16.8029,-3.05789 c -11.49149,2.1311 -8.61244,24.72458 3.03005,22.20575 10.17329,-2.20095 7.44234,-24.14788 -3.03005,-22.20575 m -55.642426,1.98767 c 4.182104,4.80422 -2.520551,19.63603 5.784609,20.30064 0.840857,0.0674 1.669322,-0.0928 2.479138,-0.38012 1.20639,-0.4282 2.247129,-1.24538 3.305479,-2.08349 l 0.27547,2.14044 6.06006,-0.35671 v -0.35674 c -1.89363,-1.97676 -1.65275,-4.22216 -1.65275,-7.13483 v -13.9129 l -6.060073,1.42698 c 1.927913,4.03985 1.929623,10.82508 1.336483,15.69521 -0.29014,2.38216 -2.825938,3.59137 -4.336559,2.23376 -1.380853,-1.24098 -1.131803,-3.54333 -1.131803,-5.44305 v -13.9129 l -6.060054,1.78371 m 55.646706,-0.85498 c 2.04277,-1.00206 3.4305,1.01548 3.91739,3.35216 0.77392,3.71433 1.69646,15.33672 -2.00451,16.89043 -2.00101,0.84003 -3.27575,-1.03854 -3.74099,-3.33429 -0.73185,-3.61129 -1.62491,-15.21444 1.82811,-16.9083 m -28.09987,0.32484 c 5.28323,-2.0771 3.27005,9.87325 3.30548,13.72955 0.0192,1.9535 0.75799,4.39311 -1.10821,5.22697 -6.64385,2.9686 -7.51453,-16.86608 -2.19727,-18.95652 z"
       id="path1" /></g></svg>
